<?xml version="1.0" encoding="UTF-8" standalone="no"?>
<!-- Created with Inkscape (http://www.inkscape.org/) -->

<svg
   xmlns:dc="http://purl.org/dc/elements/1.1/"
   xmlns:cc="http://creativecommons.org/ns#"
   xmlns:rdf="http://www.w3.org/1999/02/22-rdf-syntax-ns#"
   xmlns:svg="http://www.w3.org/2000/svg"
   xmlns="http://www.w3.org/2000/svg"
   xmlns:sodipodi="http://sodipodi.sourceforge.net/DTD/sodipodi-0.dtd"
   xmlns:inkscape="http://www.inkscape.org/namespaces/inkscape"
   width="210mm"
   height="297mm"
   viewBox="0 0 210 297"
   version="1.1"
   id="svg8"
   inkscape:version="0.92.4 (5da689c313, 2019-01-14)"
   sodipodi:docname="mosinside.svg">
  <defs
     id="defs2" />
  <sodipodi:namedview
     id="base"
     pagecolor="#ffffff"
     bordercolor="#666666"
     borderopacity="1.0"
     inkscape:pageopacity="0.0"
     inkscape:pageshadow="2"
     inkscape:zoom="0.98994949"
     inkscape:cx="248.14107"
     inkscape:cy="643.80609"
     inkscape:document-units="mm"
     inkscape:current-layer="layer1"
     showgrid="false"
     inkscape:window-width="1280"
     inkscape:window-height="763"
     inkscape:window-x="0"
     inkscape:window-y="18"
     inkscape:window-maximized="1" />
  <metadata
     id="metadata5">
    <rdf:RDF>
      <cc:Work
         rdf:about="">
        <dc:format>image/svg+xml</dc:format>
        <dc:type
           rdf:resource="http://purl.org/dc/dcmitype/StillImage" />
        <dc:title></dc:title>
      </cc:Work>
    </rdf:RDF>
  </metadata>
  <g
     inkscape:label="Capa 1"
     inkscape:groupmode="layer"
     id="layer1">
    <path
       style="fill:#000000;fill-opacity:1;stroke-width:0.26458335"
       d="m 102.46093,162.70477 c -4.706761,-0.35531 -10.673341,-1.59399 -15.058921,-3.1263 -13.6693,-4.77601 -23.698682,-16.43406 -26.061345,-30.29346 -2.509505,-14.72077 2.644563,-29.34371 13.868185,-39.34632 5.8415,-5.20601 12.76763,-9.8772 19.71146,-13.293989 8.388451,-4.12764 15.979881,-6.368985 25.664581,-7.57739 4.45965,-0.556451 13.55803,-0.626726 17.4625,-0.13488 5.46357,0.688247 10.56118,1.860239 10.774,2.477055 0.14176,0.410832 -1.25611,10.478114 -1.48696,10.708974 -0.0929,0.0929 -0.6132,-0.0994 -1.15614,-0.42737 -3.77804,-2.28231 -8.18194,-3.92782 -13.62016,-5.089127 -3.21365,-0.686265 -11.63054,-0.964519 -15.55206,-0.514138 -21.253481,2.440935 -41.312261,15.755605 -50.069211,33.235085 -2.497742,4.98566 -3.369679,8.61356 -3.369679,14.02036 0,3.64278 0.40974,6.19032 1.466314,9.11674 1.498516,4.15047 2.810545,6.28559 6.101765,9.92967 3.40028,3.76483 6.68205,6.18444 12.00032,8.8477 10.42284,5.2195 22.699481,6.86503 35.420781,4.74772 11.70698,-1.9485 21.60387,-6.79886 29.13263,-14.27759 5.6423,-5.60482 9.54852,-12.40373 10.91918,-19.00519 1.72955,-8.33 -1.51128,-17.59075 -8.44491,-24.13159 -4.57096,-4.31202 -9.03775,-6.89465 -14.82781,-8.57325 -1.24431,-0.36074 -2.30943,-0.70293 -2.36693,-0.76043 -0.19018,-0.19019 -0.66821,-6.81295 -0.50363,-6.97753 0.27625,-0.27625 3.60467,0.44717 6.50854,1.41462 10.41073,3.46843 18.87338,11.75227 22.22461,21.75503 1.27166,3.79564 1.69386,6.75864 1.68387,11.8173 -0.007,3.61548 -0.12435,5.04295 -0.59747,7.27604 -3.18068,15.01277 -13.06707,26.27156 -28.89048,32.90098 -10.34958,4.33609 -20.49894,6.06892 -30.93303,5.28128 z M 89.532019,148.40116 c -0.5322,-0.44632 -0.55474,-0.7303 -0.62463,-7.87136 l -0.0725,-7.40833 1.02622,-0.0841 c 1.22835,-0.10072 2.46331,0.36194 2.83878,1.06352 0.18169,0.33948 0.20937,2.80752 0.0828,7.38381 -0.17181,6.21311 -0.2355,6.89818 -0.66249,7.1267 -0.74253,0.39739 -1.98391,0.29657 -2.58819,-0.21019 z m 14.580411,-2.18687 c -0.88618,-0.36349 -1.055,-0.99615 -1.6581,-6.21366 -0.30277,-2.61937 -0.61397,-4.9778 -0.69155,-5.24094 -0.27217,-0.9232 -1.19005,-0.39362 -1.975711,1.1399 -1.07523,2.09876 -1.33312,3.63568 -1.13201,6.74634 0.16991,2.62808 0.15829,2.70902 -0.44998,3.13507 -0.77237,0.54099 -1.92873,0.56496 -2.44304,0.0507 -0.38824,-0.38824 -0.68876,-5.41499 -0.79942,-13.37165 l -0.0423,-3.04271 h 2.11666 2.11667 l 0.0746,1.19063 c 0.1206,1.92418 0.2543,2.02527 1.112221,0.84094 0.92668,-1.27925 1.515,-1.63469 2.70563,-1.63469 1.84355,0 2.64557,1.36056 3.11523,5.28472 0.38559,3.22179 0.3405,9.77018 -0.0729,10.59028 -0.36468,0.72339 -1.04914,0.90529 -1.976,0.52511 z m 4.36276,-1.68226 c -0.39743,-0.36832 -0.71952,-0.94325 -0.71577,-1.27762 0.004,-0.33437 0.77765,-1.73177 1.71979,-3.10534 0.94213,-1.37358 1.71297,-2.72451 1.71297,-3.00207 0,-0.27757 -0.94716,-1.51702 -2.10479,-2.75432 -3.15005,-3.36685 -3.22864,-4.11379 -0.76435,-7.26461 2.96584,-3.7921 5.01729,-4.38034 6.02576,-1.72786 0.35309,0.92869 0.17019,1.3058 -1.8199,3.75251 -0.82854,1.01864 -1.60087,2.01148 -1.7163,2.2063 -0.1443,0.24357 0.41337,0.95755 1.78519,2.28559 3.16829,3.06717 3.26023,4.44461 0.55082,8.2525 -1.88819,2.65371 -2.18707,2.95184 -3.15299,3.14502 -0.62389,0.12478 -0.95539,0.0136 -1.52043,-0.5101 z m 8.47845,-4.58518 c -0.36296,-0.40282 -0.45762,-1.61635 -0.62012,-7.94986 l -0.19178,-7.47448 h 1.4351 c 0.87066,0 1.66638,0.162 2.02314,0.41188 0.57747,0.40448 0.58741,0.51022 0.55345,5.88697 -0.019,3.01131 -0.10831,6.36808 -0.19843,7.45948 l -0.16386,1.98438 -1.20457,0.0785 c -0.89474,0.0583 -1.31476,-0.0438 -1.63293,-0.39688 z m 12.75937,-0.81262 c -0.96672,-0.14187 -1.32291,-0.77706 -1.32291,-2.35917 0,-0.77255 -0.11334,-1.40463 -0.25188,-1.40463 -0.13853,0 -0.61685,0.53048 -1.06294,1.17885 -0.98062,1.42528 -1.74623,1.99615 -2.67712,1.99615 -2.33114,0 -3.58787,-3.90491 -2.89517,-8.99584 0.53965,-3.96606 1.87486,-6.08953 4.66689,-7.42205 l 1.70793,-0.81512 -0.0746,-3.74466 -0.0746,-3.74465 0.75011,-0.36407 c 0.93324,-0.45295 2.39024,-0.21597 3.11244,0.50623 0.50563,0.50563 0.51917,0.77078 0.35373,6.93056 -0.50048,18.63513 -0.46238,17.97059 -1.04128,18.16122 -0.29104,0.0958 -0.82682,0.13056 -1.19063,0.0772 z m -3.49491,-5.2365 c 1.22329,-0.85682 1.64283,-2.23083 1.64283,-5.38031 0,-1.59794 -0.10821,-2.97223 -0.24047,-3.05397 -0.40819,-0.25227 -1.57665,1.39344 -2.01775,2.84192 -0.46788,1.53641 -0.81221,4.94352 -0.56477,5.58833 0.20148,0.52505 0.43516,0.52585 1.18016,0.004 z m 10.41905,-0.55461 c -1.01604,-0.21708 -2.5833,-2.01041 -3.08988,-3.53557 -0.3585,-1.07934 -0.43218,-1.93593 -0.32704,-3.80215 0.22983,-4.07939 1.65727,-7.32062 3.88526,-8.82206 1.4503,-0.97736 3.69456,-0.64963 4.91065,0.7171 1.19619,1.34436 0.25888,5.38784 -1.67941,7.24484 -0.42421,0.40642 -1.35098,0.88633 -2.05948,1.06647 l -1.28819,0.32753 -0.0784,1.47398 c -0.0577,1.08433 0.0347,1.58715 0.34962,1.90203 0.65711,0.65711 0.926,0.54134 2.38573,-1.02716 0.95727,-1.02858 1.55189,-1.4552 2.02827,-1.4552 2.09325,0 1.41647,3.61171 -0.98514,5.25732 -0.85104,0.58314 -2.86189,0.90714 -4.05197,0.65287 z m 1.75178,-9.23497 c 0.82216,-0.57586 1.64283,-2.2893 1.64283,-3.42996 0,-0.83502 -0.0736,-0.94436 -0.58622,-0.87044 -1.05007,0.15145 -2.58654,3.19405 -2.16616,4.28955 0.2033,0.52979 0.36639,0.53138 1.10955,0.0109 z m -48.660121,6.79184 -1.1585,-1.03086 0.80535,-1.15057 c 0.44295,-0.63281 0.98006,-1.18421 1.19357,-1.22533 0.52783,-0.10165 2.89587,1.42801 2.89587,1.87062 0,0.48636 -1.81198,2.56699 -2.23555,2.56699 -0.18823,0 -0.86356,-0.46388 -1.50074,-1.03085 z m -14.12947,-5.38529 c -0.36012,-0.97567 -4.88711,-18.12967 -4.8877,-18.52084 -4e-4,-0.25466 0.0502,-0.46302 0.11249,-0.46302 0.0623,0 1.19912,-0.29061 2.52635,-0.6458 l 2.41315,-0.6458 0.25835,0.57966 c 0.14209,0.31881 1.32833,4.56261 2.6361,9.43067 1.89102,7.03924 2.30942,8.91267 2.04394,9.15218 -0.27885,0.25159 -4.24707,1.44368 -4.8057,1.44368 -0.0962,0 -0.22985,-0.14883 -0.29698,-0.33073 z m 6.83849,-1.85209 c -0.35836,-0.56281 -5.10488,-18.30318 -4.98683,-18.63852 0.17341,-0.49262 1.79222,-0.68388 3.01086,-0.35574 1.28567,0.3462 2.75835,1.54671 3.1758,2.58888 0.4073,1.01679 4.0066,14.47818 4.0066,14.98466 0,0.27836 -0.49783,0.55191 -1.52135,0.83595 -0.83674,0.23221 -1.86654,0.53319 -2.28844,0.66885 -0.99752,0.32075 -1.14452,0.3119 -1.39664,-0.0841 z m 34.887861,-1.04881 c -0.60853,-0.4677 -1.10643,-1.05887 -1.10643,-1.3137 0,-0.54693 1.50098,-2.33384 1.96038,-2.33384 0.41412,0 2.06025,1.21682 2.35243,1.7389 0.28739,0.51354 -1.28615,2.73708 -1.94961,2.75496 -0.0827,0.002 -0.64823,-0.37861 -1.25677,-0.84632 z m -28.320591,-1.30526 c -0.9254,-2.87383 -4.80666,-17.8194 -4.69986,-18.09772 0.20219,-0.52688 1.60054,-0.70978 2.85144,-0.37295 1.45733,0.39242 2.49976,1.13593 3.02987,2.16106 0.36232,0.70065 4.33688,14.97393 4.33688,15.57442 0,0.21537 -2.76749,1.12922 -4.42151,1.46002 -0.74126,0.14826 -0.8358,0.0858 -1.09682,-0.72483 z m 11.612461,-3.29501 c -2.908311,-0.78159 -5.287231,-2.86894 -6.717081,-5.89379 -0.74939,-1.58535 -0.82776,-1.99211 -0.82191,-4.26598 0.008,-3.16233 0.65174,-4.9353 2.54259,-7.0042 4.947151,-5.41296 13.185821,-3.92196 16.446181,2.97636 0.76318,1.61476 0.84016,2.01079 0.83428,4.29242 -0.008,3.09162 -0.64474,4.90338 -2.41575,6.87317 -2.64101,2.93744 -6.16614,4.01696 -9.86831,3.02202 z m 15.84072,-4.00821 c -0.15238,-0.40018 -0.47188,-1.53869 -0.71001,-2.53001 -0.33847,-1.40902 -0.3618,-1.8464 -0.10688,-2.00395 0.17935,-0.11084 4.44339,-1.31058 9.47565,-2.66607 10.10014,-2.72059 9.61163,-2.69233 9.61901,-0.55642 0.005,1.56228 -0.86673,3.2979 -2.01318,4.00644 -0.7934,0.49035 -14.71157,4.4708 -15.65026,4.47582 -0.1855,0.001 -0.46195,-0.32563 -0.61433,-0.72581 z m -1.79776,-6.74687 c -0.61537,-1.6448 -1.18234,-4.44144 -0.94609,-4.66668 0.27812,-0.26515 17.77505,-5.05676 18.46515,-5.05676 0.44956,0 1.53697,3.13061 1.60101,4.60923 l 0.0335,0.77277 -8.99584,2.45206 c -4.94771,1.34864 -9.20714,2.45941 -9.4654,2.46838 -0.25826,0.009 -0.5698,-0.25158 -0.6923,-0.579 z m -1.7881,-6.68839 c -0.0854,-0.2225 -0.10369,-1.11706 -0.0407,-1.98793 0.11971,-1.65501 0.60535,-2.58338 1.81639,-3.47234 0.68365,-0.50183 15.15982,-4.52639 15.81733,-4.39742 0.24146,0.0474 0.62604,0.95797 1.02592,2.42919 0.52697,1.9388 0.57816,2.40969 0.29055,2.67281 -0.27634,0.25281 -17.95552,5.16022 -18.58996,5.16022 -0.0904,0 -0.23415,-0.18204 -0.31953,-0.40453 z"
       id="path4671"
       inkscape:connector-curvature="0"
       inkscape:export-xdpi="96"
       inkscape:export-ydpi="96" />
  </g>
</svg>
